<mxfile host="app.diagrams.net" modified="2024-07-13T13:27:35.962Z" agent="Mozilla/5.0 (Windows NT 10.0; Win64; x64) AppleWebKit/537.36 (KHTML, like Gecko) Chrome/128.0.0.0 Safari/537.36 Edg/128.0.0.0" version="24.6.5" etag="oprh0srT9WfMgzenfHwh" type="github">
  <diagram name="第 1 页" id="JzvRJWwTth9b1M5HLCIL">
    <mxGraphModel>
      <root>
        <mxCell id="0" />
        <mxCell id="1" parent="0" />
      </root>
    </mxGraphModel>
  </diagram>
</mxfile>
